<?xml version="1.0" encoding="utf-8"?>
<!-- Generator: Adobe Illustrator 16.0.0, SVG Export Plug-In . SVG Version: 6.00 Build 0)  -->
<!DOCTYPE svg PUBLIC "-//W3C//DTD SVG 1.1//EN" "http://www.w3.org/Graphics/SVG/1.1/DTD/svg11.dtd">
<svg version="1.1" id="Layer_1" xmlns="http://www.w3.org/2000/svg" xmlns:xlink="http://www.w3.org/1999/xlink" x="0px" y="0px"
	 width="126.828px" height="102.415px" viewBox="0 0 126.828 102.415" enable-background="new 0 0 126.828 102.415"
	 xml:space="preserve">
<g>
	<g>
		<defs>
			<path id="SVGID_1_" d="M9.914,78.452v10.992c0,1.251-0.007,2.304-0.023,3.198v0.01c-0.072,4.291-0.317,4.78-0.745,5.203
				c-0.514,0.513-1.148,0.847-1.908,1.013L0,100.159v2.256h30.091v-2.256l-7.174-1.291c-0.8-0.166-1.457-0.491-1.972-0.991
				c-0.515-0.49-0.768-1.107-0.768-1.844V83.774c5.021-3.041,10.041-6.091,15.061-9.14c3.548,5.038,7.088,10.073,10.628,15.11
				c0.713,1.014,1.884,3.075,3.901,5.545c0.027,0.033,0.055,0.066,0.08,0.099c3.557,4.33,8.899,6.799,14.504,6.851
				c0.158,0.001,0.646,0.016,1.621,0.026c4.216,0.055,7.6-0.013,9.871-0.084c-0.903-0.179-2.211-0.483-3.733-1.018
				c-8.033-2.811-12.666-8.655-16.914-14.253c-6.583-8.675-12.253-16.779-17.138-24.177C28.682,67.977,19.298,73.219,9.914,78.452"
				/>
		</defs>
		<clipPath id="SVGID_2_">
			<use xlink:href="#SVGID_1_"  overflow="visible"/>
		</clipPath>
		
			<linearGradient id="SVGID_3_" gradientUnits="userSpaceOnUse" x1="-465.2104" y1="546.0303" x2="-464.2104" y2="546.0303" gradientTransform="matrix(0 111.9772 -111.9772 0 61180.8594 52095.1016)">
			<stop  offset="0" style="stop-color:#B07F2C"/>
			<stop  offset="0.0762" style="stop-color:#BD8E33"/>
			<stop  offset="0.2279" style="stop-color:#E2BA51"/>
			<stop  offset="0.297" style="stop-color:#FAD565"/>
			<stop  offset="0.3402" style="stop-color:#FBE192"/>
			<stop  offset="0.3812" style="stop-color:#FCEBB5"/>
			<stop  offset="0.4179" style="stop-color:#FDF3D0"/>
			<stop  offset="0.4487" style="stop-color:#FDF9E0"/>
			<stop  offset="0.4701" style="stop-color:#FDFCE7"/>
			<stop  offset="0.7057" style="stop-color:#FAD565"/>
			<stop  offset="0.8912" style="stop-color:#C58F37"/>
			<stop  offset="1" style="stop-color:#AF732A"/>
		</linearGradient>
		<rect y="62.734" clip-path="url(#SVGID_2_)" fill="url(#SVGID_3_)" width="75.843" height="39.681"/>
	</g>
	<g>
		<defs>
			<path id="SVGID_4_" d="M30.091,0v2.258l-7.174,1.251c-0.76,0.159-1.409,0.507-1.94,1.03c-0.539,0.53-0.8,1.147-0.8,1.852v6.731
				h0.064V6.383c0-0.736,0.262-1.345,0.767-1.844c0.515-0.5,1.172-0.824,1.972-0.991l7.183-1.29V0H30.091z"/>
		</defs>
		<clipPath id="SVGID_5_">
			<use xlink:href="#SVGID_4_"  overflow="visible"/>
		</clipPath>
		
			<linearGradient id="SVGID_6_" gradientUnits="userSpaceOnUse" x1="-465.2104" y1="546.0293" x2="-464.2104" y2="546.0293" gradientTransform="matrix(0 111.9772 -111.9772 0 61168.1094 52095.1016)">
			<stop  offset="0" style="stop-color:#B07F2C"/>
			<stop  offset="0.0762" style="stop-color:#BD8E33"/>
			<stop  offset="0.2279" style="stop-color:#E2BA51"/>
			<stop  offset="0.297" style="stop-color:#FAD565"/>
			<stop  offset="0.3402" style="stop-color:#FBE192"/>
			<stop  offset="0.3812" style="stop-color:#FCEBB5"/>
			<stop  offset="0.4179" style="stop-color:#FDF3D0"/>
			<stop  offset="0.4487" style="stop-color:#FDF9E0"/>
			<stop  offset="0.4701" style="stop-color:#FDFCE7"/>
			<stop  offset="0.7057" style="stop-color:#FAD565"/>
			<stop  offset="0.8912" style="stop-color:#C58F37"/>
			<stop  offset="1" style="stop-color:#AF732A"/>
		</linearGradient>
		<rect x="20.177" clip-path="url(#SVGID_5_)" fill="url(#SVGID_6_)" width="9.986" height="13.122"/>
	</g>
	<g>
		<defs>
			<path id="SVGID_7_" d="M103.762,65.734c0.036,0.033,0.085,0.063,0.125,0.103c0.023,0.017,0.055,0.041,0.081,0.063
				c0.409,0.342,0.837,0.666,1.278,0.959L103.762,65.734L103.762,65.734z"/>
		</defs>
		<clipPath id="SVGID_8_">
			<use xlink:href="#SVGID_7_"  overflow="visible"/>
		</clipPath>
		
			<linearGradient id="SVGID_9_" gradientUnits="userSpaceOnUse" x1="-465.2104" y1="546.0293" x2="-464.2104" y2="546.0293" gradientTransform="matrix(0 111.9772 -111.9772 0 61247.4219 52095.1016)">
			<stop  offset="0" style="stop-color:#B07F2C"/>
			<stop  offset="0.0762" style="stop-color:#BD8E33"/>
			<stop  offset="0.2279" style="stop-color:#E2BA51"/>
			<stop  offset="0.297" style="stop-color:#FAD565"/>
			<stop  offset="0.3402" style="stop-color:#FBE192"/>
			<stop  offset="0.3812" style="stop-color:#FCEBB5"/>
			<stop  offset="0.4179" style="stop-color:#FDF3D0"/>
			<stop  offset="0.4487" style="stop-color:#FDF9E0"/>
			<stop  offset="0.4701" style="stop-color:#FDFCE7"/>
			<stop  offset="0.7057" style="stop-color:#FAD565"/>
			<stop  offset="0.8912" style="stop-color:#C58F37"/>
			<stop  offset="1" style="stop-color:#AF732A"/>
		</linearGradient>
		<rect x="103.762" y="65.734" clip-path="url(#SVGID_8_)" fill="url(#SVGID_9_)" width="1.484" height="1.125"/>
	</g>
	<g>
		<defs>
			<path id="SVGID_10_" d="M0.063,0v2.258l7.238,1.29c0.76,0.167,1.394,0.5,1.908,1.014c0.365,0.357,0.594,0.76,0.698,3.461v0.022
				C9.899,28.144,9.891,48.242,9.874,68.34c19.448-9.842,38.898-19.687,58.346-29.537l35.541,26.931
				c1.196,0.906,2.492,1.686,3.883,2.261c2.853,1.181,5.337,1.476,7.092,1.636c0.771,0.071,1.513,0.109,3.204,0.119
				c2.158,0.014,5.175-0.02,8.888-0.232c-1.273-0.471-2.564-0.986-3.87-1.557c-9.594-4.189-17.08-9.971-22.776-15.625V41.519
				c0-1.908-0.776-3.635-2.027-4.878c-1.243-1.251-2.97-2.028-4.87-2.028V46.84c-8.354-6.659-16.709-13.311-25.063-19.962
				c-16.01,7.997-32.031,15.996-48.043,23.994V6.391c0-0.705,0.261-1.322,0.8-1.852c0.531-0.523,1.18-0.871,1.94-1.03l7.174-1.251V0
				H0.063z"/>
		</defs>
		<clipPath id="SVGID_11_">
			<use xlink:href="#SVGID_10_"  overflow="visible"/>
		</clipPath>
		
			<linearGradient id="SVGID_12_" gradientUnits="userSpaceOnUse" x1="-465.2104" y1="546.0293" x2="-464.2104" y2="546.0293" gradientTransform="matrix(0 111.9772 -111.9772 0 61206.3594 52095.1016)">
			<stop  offset="0" style="stop-color:#B07F2C"/>
			<stop  offset="0.0762" style="stop-color:#BD8E33"/>
			<stop  offset="0.2279" style="stop-color:#E2BA51"/>
			<stop  offset="0.297" style="stop-color:#FAD565"/>
			<stop  offset="0.3402" style="stop-color:#FBE192"/>
			<stop  offset="0.3812" style="stop-color:#FCEBB5"/>
			<stop  offset="0.4179" style="stop-color:#FDF3D0"/>
			<stop  offset="0.4487" style="stop-color:#FDF9E0"/>
			<stop  offset="0.4701" style="stop-color:#FDFCE7"/>
			<stop  offset="0.7057" style="stop-color:#FAD565"/>
			<stop  offset="0.8912" style="stop-color:#C58F37"/>
			<stop  offset="1" style="stop-color:#AF732A"/>
		</linearGradient>
		<rect x="0.063" clip-path="url(#SVGID_11_)" fill="url(#SVGID_12_)" width="126.765" height="69.764"/>
	</g>
	<g>
		<defs>
			<rect id="SVGID_13_" x="59.158" y="48.793" width="6.331" height="6.331"/>
		</defs>
		<clipPath id="SVGID_14_">
			<use xlink:href="#SVGID_13_"  overflow="visible"/>
		</clipPath>
		
			<linearGradient id="SVGID_15_" gradientUnits="userSpaceOnUse" x1="-465.2104" y1="546.0303" x2="-464.2104" y2="546.0303" gradientTransform="matrix(0 111.9772 -111.9772 0 61205.2344 52095.1016)">
			<stop  offset="0" style="stop-color:#B07F2C"/>
			<stop  offset="0.0762" style="stop-color:#BD8E33"/>
			<stop  offset="0.2279" style="stop-color:#E2BA51"/>
			<stop  offset="0.297" style="stop-color:#FAD565"/>
			<stop  offset="0.3402" style="stop-color:#FBE192"/>
			<stop  offset="0.3812" style="stop-color:#FCEBB5"/>
			<stop  offset="0.4179" style="stop-color:#FDF3D0"/>
			<stop  offset="0.4487" style="stop-color:#FDF9E0"/>
			<stop  offset="0.4701" style="stop-color:#FDFCE7"/>
			<stop  offset="0.7057" style="stop-color:#FAD565"/>
			<stop  offset="0.8912" style="stop-color:#C58F37"/>
			<stop  offset="1" style="stop-color:#AF732A"/>
		</linearGradient>
		<rect x="59.158" y="48.793" clip-path="url(#SVGID_14_)" fill="url(#SVGID_15_)" width="6.331" height="6.331"/>
	</g>
	<g>
		<defs>
			<rect id="SVGID_16_" x="66.909" y="48.793" width="6.329" height="6.331"/>
		</defs>
		<clipPath id="SVGID_17_">
			<use xlink:href="#SVGID_16_"  overflow="visible"/>
		</clipPath>
		
			<linearGradient id="SVGID_18_" gradientUnits="userSpaceOnUse" x1="-465.2104" y1="546.0313" x2="-464.2104" y2="546.0313" gradientTransform="matrix(0 111.9772 -111.9772 0 61213.1094 52095.1016)">
			<stop  offset="0" style="stop-color:#B07F2C"/>
			<stop  offset="0.0762" style="stop-color:#BD8E33"/>
			<stop  offset="0.2279" style="stop-color:#E2BA51"/>
			<stop  offset="0.297" style="stop-color:#FAD565"/>
			<stop  offset="0.3402" style="stop-color:#FBE192"/>
			<stop  offset="0.3812" style="stop-color:#FCEBB5"/>
			<stop  offset="0.4179" style="stop-color:#FDF3D0"/>
			<stop  offset="0.4487" style="stop-color:#FDF9E0"/>
			<stop  offset="0.4701" style="stop-color:#FDFCE7"/>
			<stop  offset="0.7057" style="stop-color:#FAD565"/>
			<stop  offset="0.8912" style="stop-color:#C58F37"/>
			<stop  offset="1" style="stop-color:#AF732A"/>
		</linearGradient>
		<rect x="66.909" y="48.793" clip-path="url(#SVGID_17_)" fill="url(#SVGID_18_)" width="6.329" height="6.331"/>
	</g>
	<g>
		<defs>
			<rect id="SVGID_19_" x="59.158" y="56.404" width="6.331" height="6.33"/>
		</defs>
		<clipPath id="SVGID_20_">
			<use xlink:href="#SVGID_19_"  overflow="visible"/>
		</clipPath>
		
			<linearGradient id="SVGID_21_" gradientUnits="userSpaceOnUse" x1="-465.2153" y1="546.0293" x2="-464.2066" y2="546.0293" gradientTransform="matrix(0 111.9772 -111.9772 0 61205.2344 52095.1016)">
			<stop  offset="0" style="stop-color:#B07F2C"/>
			<stop  offset="0.0762" style="stop-color:#BD8E33"/>
			<stop  offset="0.2279" style="stop-color:#E2BA51"/>
			<stop  offset="0.297" style="stop-color:#FAD565"/>
			<stop  offset="0.3402" style="stop-color:#FBE192"/>
			<stop  offset="0.3812" style="stop-color:#FCEBB5"/>
			<stop  offset="0.4179" style="stop-color:#FDF3D0"/>
			<stop  offset="0.4487" style="stop-color:#FDF9E0"/>
			<stop  offset="0.4701" style="stop-color:#FDFCE7"/>
			<stop  offset="0.7057" style="stop-color:#FAD565"/>
			<stop  offset="0.8912" style="stop-color:#C58F37"/>
			<stop  offset="1" style="stop-color:#AF732A"/>
		</linearGradient>
		<rect x="59.158" y="56.404" clip-path="url(#SVGID_20_)" fill="url(#SVGID_21_)" width="6.331" height="6.33"/>
	</g>
	<g>
		<defs>
			<rect id="SVGID_22_" x="66.909" y="56.404" width="6.329" height="6.33"/>
		</defs>
		<clipPath id="SVGID_23_">
			<use xlink:href="#SVGID_22_"  overflow="visible"/>
		</clipPath>
		
			<linearGradient id="SVGID_24_" gradientUnits="userSpaceOnUse" x1="-465.2153" y1="546.0303" x2="-464.2066" y2="546.0303" gradientTransform="matrix(0 111.9772 -111.9772 0 61213.1094 52095.1016)">
			<stop  offset="0" style="stop-color:#B07F2C"/>
			<stop  offset="0.0762" style="stop-color:#BD8E33"/>
			<stop  offset="0.2279" style="stop-color:#E2BA51"/>
			<stop  offset="0.297" style="stop-color:#FAD565"/>
			<stop  offset="0.3402" style="stop-color:#FBE192"/>
			<stop  offset="0.3812" style="stop-color:#FCEBB5"/>
			<stop  offset="0.4179" style="stop-color:#FDF3D0"/>
			<stop  offset="0.4487" style="stop-color:#FDF9E0"/>
			<stop  offset="0.4701" style="stop-color:#FDFCE7"/>
			<stop  offset="0.7057" style="stop-color:#FAD565"/>
			<stop  offset="0.8912" style="stop-color:#C58F37"/>
			<stop  offset="1" style="stop-color:#AF732A"/>
		</linearGradient>
		<rect x="66.909" y="56.404" clip-path="url(#SVGID_23_)" fill="url(#SVGID_24_)" width="6.329" height="6.33"/>
	</g>
</g>
</svg>
